<?xml version="1.0" encoding="UTF-8" standalone="no"?>
<!-- Created with Inkscape (http://www.inkscape.org/) -->

<svg
   xmlns:dc="http://purl.org/dc/elements/1.1/"
   xmlns:cc="http://creativecommons.org/ns#"
   xmlns:rdf="http://www.w3.org/1999/02/22-rdf-syntax-ns#"
   xmlns:svg="http://www.w3.org/2000/svg"
   xmlns="http://www.w3.org/2000/svg"
   xmlns:sodipodi="http://sodipodi.sourceforge.net/DTD/sodipodi-0.dtd"
   xmlns:inkscape="http://www.inkscape.org/namespaces/inkscape"
   width="210mm"
   height="297mm"
   viewBox="0 0 744.09448819 1052.3622047"
   id="svg2"
   version="1.1"
   inkscape:version="0.91 r13725"
   sodipodi:docname="survey.svg">
  <defs
     id="defs4" />
  <sodipodi:namedview
     id="base"
     pagecolor="#ffffff"
     bordercolor="#666666"
     borderopacity="1.0"
     inkscape:pageopacity="0.0"
     inkscape:pageshadow="2"
     inkscape:zoom="1"
     inkscape:cx="325.56108"
     inkscape:cy="796.22274"
     inkscape:document-units="px"
     inkscape:current-layer="layer1"
     showgrid="false"
     inkscape:window-width="1366"
     inkscape:window-height="737"
     inkscape:window-x="0"
     inkscape:window-y="31"
     inkscape:window-maximized="0" />
  <metadata
     id="metadata7">
    <rdf:RDF>
      <cc:Work
         rdf:about="">
        <dc:format>image/svg+xml</dc:format>
        <dc:type
           rdf:resource="http://purl.org/dc/dcmitype/StillImage" />
        <dc:title></dc:title>
      </cc:Work>
    </rdf:RDF>
  </metadata>
  <g
     inkscape:label="Layer 1"
     inkscape:groupmode="layer"
     id="layer1">
    <circle
       style="fill:#428bca;fill-opacity:1;stroke:none;stroke-width:1;stroke-miterlimit:4;stroke-dasharray:none;stroke-opacity:1"
       id="path3706"
       cx="-259.10413"
       cy="-278.08026"
       r="118.69292"
       transform="scale(-1,-1)" />
    <g
       id="g3670"
       transform="matrix(1.7490367,0,0,1.7490367,160.87471,187.38239)"
       style="fill:#ffffff">
      <g
         id="g3596"
         style="fill:#ffffff">
        <g
           id="g3598"
           style="fill:#ffffff">
          <path
             id="path3600"
             d="m 24,44.372 c -2.267,-0.54 -5.273,-1.573 -8.396,-3.566 -0.976,0.333 -2.022,0.63 -3.134,0.886 C 5.38,43.328 4.078,45.217 4.078,52 L 24,52 24,44.372 Z"
             inkscape:connector-curvature="0"
             style="fill:#ffffff" />
        </g>
        <g
           id="g3602"
           style="fill:#ffffff">
          <path
             id="path3604"
             d="m 18.014,39.812 c 2.215,1.269 4.3,2.018 5.986,2.467 L 24,18.58 C 24,15.84 26.725,14 29.27,14 l 11.783,0 c 0.114,-0.198 0.249,-0.38 0.394,-0.555 C 40.165,6.471 34.332,2.795 29,2.795 c 0.008,6.604 -0.008,6.604 0,0 -8.771,0 -18.924,9.93 -7.879,28.164 2.248,4.239 0.556,7.01 -3.107,8.853 z"
             inkscape:connector-curvature="0"
             style="fill:#ffffff" />
        </g>
      </g>
      <g
         id="g3606"
         style="fill:#ffffff">
        <path
           id="path3608"
           d="m 45,39 -11,0 0,-11 11,0 0,11 z m -9,-2 7,0 0,-7 -7,0 0,7 z"
           inkscape:connector-curvature="0"
           style="fill:#ffffff" />
      </g>
      <g
         id="g3610"
         style="fill:#ffffff">
        <rect
           id="rect3612"
           height="2"
           width="21"
           y="30"
           x="48"
           style="fill:#ffffff" />
      </g>
      <g
         id="g3614"
         style="fill:#ffffff">
        <rect
           id="rect3616"
           height="2"
           width="18"
           y="34"
           x="48"
           style="fill:#ffffff" />
      </g>
      <g
         id="g3618"
         style="fill:#ffffff">
        <path
           id="path3620"
           d="m 45,56 -11,0 0,-11 11,0 0,11 z m -9,-2 7,0 0,-7 -7,0 0,7 z"
           inkscape:connector-curvature="0"
           style="fill:#ffffff" />
      </g>
      <g
         id="g3622"
         style="fill:#ffffff">
        <path
           id="path3624"
           d="m 45,73 -11,0 0,-11 11,0 0,11 z m -9,-2 7,0 0,-7 -7,0 0,7 z"
           inkscape:connector-curvature="0"
           style="fill:#ffffff" />
      </g>
      <g
         id="g3626"
         style="fill:#ffffff">
        <rect
           id="rect3628"
           height="2"
           width="11"
           y="68"
           x="48"
           style="fill:#ffffff" />
      </g>
      <g
         id="g3630"
         style="fill:#ffffff">
        <g
           id="g3632"
           style="fill:#ffffff">
          <path
             id="path3634"
             d="M 63.086,45 48,45 l 0,2 12.943,0 c 0.649,-0.737 1.367,-1.405 2.143,-2 z"
             inkscape:connector-curvature="0"
             style="fill:#ffffff" />
        </g>
      </g>
      <g
         id="g3636"
         style="fill:#ffffff">
        <g
           id="g3638"
           style="fill:#ffffff">
          <path
             id="path3640"
             d="M 59.306,49.249 C 59.355,49.162 59.418,49.085 59.469,49 L 48,49 l 0,2 10.471,0 c 0.24,-0.59 0.511,-1.175 0.835,-1.751 z"
             inkscape:connector-curvature="0"
             style="fill:#ffffff" />
        </g>
      </g>
      <g
         id="g3642"
         style="fill:#ffffff">
        <g
           id="g3644"
           style="fill:#ffffff">
          <path
             id="path3646"
             d="M 57.825,53 48,53 l 0,2 9.447,0 c 0.084,-0.669 0.208,-1.336 0.378,-2 z"
             inkscape:connector-curvature="0"
             style="fill:#ffffff" />
        </g>
      </g>
      <g
         id="g3648"
         style="fill:#ffffff">
        <g
           id="g3650"
           style="fill:#ffffff">
          <path
             id="path3652"
             d="M 58.341,64 48,64 l 0,2 11.01,0 c -0.24,-0.652 -0.467,-1.317 -0.669,-2 z"
             inkscape:connector-curvature="0"
             style="fill:#ffffff" />
        </g>
      </g>
      <g
         id="g3654"
         style="fill:#ffffff">
        <path
           id="path3656"
           d="m 54.982,81.009 c 0.558,-0.129 1.177,-0.363 1.792,-0.611 0.337,-0.136 0.687,-0.273 1.04,-0.398 L 31.162,80 C 30.216,80 30,79.27 30,79.27 L 30,20.622 C 30,19.676 31.162,20 31.162,20 l 11.351,0 c 0,1 0.847,2 1.892,2 l 16.081,0 c 1.045,0 1.892,-1 1.892,-2 l 9.459,0 c 0,0 1.163,-0.324 1.163,0.622 L 73,42 l 1,0 0,-0.065 c 0.987,0.154 2,0.436 3,0.829 L 77,18.58 C 77,17.096 75.297,16 73.73,16 l -11.352,0 c 0,-1 -0.847,-2 -1.892,-2 l -16.081,0 c -1.045,0 -1.892,1 -1.892,2 L 29.27,16 C 27.703,16 26,17.096 26,18.58 l 0,62.731 C 26,82.796 27.703,84 29.27,84 l 18.642,0 c 1.541,-1.348 3.802,-2.237 7.07,-2.991 z m 3.613,-64.171 c 0.522,0 0.946,0.423 0.946,0.946 0,0.522 -0.423,0.946 -0.946,0.946 -0.523,0 -0.946,-0.424 -0.946,-0.946 0,-0.523 0.423,-0.946 0.946,-0.946 z m -12.298,0 c 0.522,0 0.946,0.423 0.946,0.946 0,0.522 -0.423,0.946 -0.946,0.946 -0.523,0 -0.946,-0.424 -0.946,-0.946 0,-0.523 0.424,-0.946 0.946,-0.946 z"
           inkscape:connector-curvature="0"
           style="fill:#ffffff" />
      </g>
      <path
         id="path3658"
         d="m 61.014,80.812 c 5.322,3.049 9.926,3.127 9.932,3.127 0.085,0 5.351,-0.086 11.121,-3.636 C 79.058,78.469 77.828,75.824 79.879,71.959 90.924,53.725 80.771,43.795 72,43.795 c 0.008,6.604 -0.008,6.604 0,0 -8.771,0 -18.924,9.93 -7.879,28.164 2.248,4.239 0.556,7.01 -3.107,8.853 z"
         inkscape:connector-curvature="0"
         style="fill:#ffffff" />
      <g
         id="g3660"
         style="fill:#ffffff">
        <path
           id="path3662"
           d="m 88.53,83.192 c -1.579,-0.364 -3.032,-1.055 -4.318,-1.578 -6.593,4.519 -12.897,4.471 -13.265,4.471 0,0 -5.938,-0.13 -12.343,-4.217 -0.976,0.333 -2.022,1.099 -3.134,1.355 C 48.38,84.859 47.078,87 47.078,94 L 72,94 96.922,94 c 0,-7 -1.302,-9.172 -8.392,-10.808 z"
           inkscape:connector-curvature="0"
           style="fill:#ffffff" />
      </g>
    </g>
    <path
       style="opacity:0.33800001;fill:#ffffff;fill-opacity:1;stroke:none;stroke-width:1;stroke-miterlimit:4;stroke-dasharray:none;stroke-opacity:1"
       d="m 140.41121,278.08026 c 0,-42.40489 22.62274,-81.58863 59.34646,-102.79108 36.72372,-21.20245 81.9692,-21.20245 118.69292,0 36.72371,21.20245 59.34645,60.38619 59.34645,102.79108 -68.34835,27.90185 -146.15653,31.31944 -237.38583,0 z"
       id="circle4508"
       inkscape:connector-curvature="0"
       sodipodi:nodetypes="csscc" />
  </g>
</svg>
